<?xml version="1.0" encoding="UTF-8"?>
<svg width="550px" height="160px" viewBox="0 0 550 160" version="1.1" xmlns="http://www.w3.org/2000/svg" xmlns:xlink="http://www.w3.org/1999/xlink">
    <!-- Generator: Sketch 50.2 (55047) - http://www.bohemiancoding.com/sketch -->
    <title>Shape</title>
    <desc>Created with Sketch.</desc>
    <defs></defs>
    <g id="Page-1" stroke="none" stroke-width="1" fill="none" fill-rule="evenodd">
        <g id="express" fill="#9D9D9D" fill-rule="nonzero">
            <path d="M3.57798658,124.165369 L3.57798658,62.9777181 L79.9742282,62.9777181 L79.9742282,59.3986577 L3.57798658,59.3986577 L3.57798658,3.57798658 L84.8042953,3.57798658 L84.8042953,0 L0,0 L0,127.743356 L85.5194631,127.743356 L85.5194631,124.165369 L3.5790604,124.165369 L3.57798658,124.165369 Z M154.402148,35.7820134 L122.735034,77.4689933 L91.7820134,35.7830872 L87.1302013,35.7830872 L120.587383,80.153557 L83.9087248,127.742282 L88.202953,127.742282 L122.732886,82.8348993 L157.442148,127.742282 L161.914631,127.742282 L125.058792,80.1514094 L158.694228,35.7809396 L154.401074,35.7809396 L154.402148,35.7820134 Z M172.650738,159.232215 L172.650738,101.981208 L173.008322,101.981208 C175.155973,110.330201 179.390067,117.039463 185.711678,122.108993 C192.033289,127.17745 200.083758,129.712752 209.864161,129.712752 C216.185772,129.712752 221.792215,128.430604 226.682416,125.866309 C231.572617,123.302013 235.65745,119.813154 238.937987,115.399732 C242.21745,110.986309 244.722685,105.857718 246.452617,100.012886 C248.181477,94.1691275 249.04698,88.0257718 249.04698,81.5860403 C249.04698,74.6673826 248.151409,68.2856376 246.362416,62.4418792 C244.573423,56.597047 241.97906,51.5275168 238.580403,47.2343624 C235.180671,42.9401342 231.065772,39.5994631 226.234631,37.2155705 C221.404564,34.8295302 215.947383,33.6365101 209.864161,33.6365101 C205.212349,33.6365101 200.889128,34.3226846 196.893423,35.6939597 C192.897718,37.0663087 189.349799,39.0034899 186.248591,41.5087248 C183.129219,44.0332095 180.414021,47.0196382 178.197047,50.3645638 C175.931275,53.7642953 174.201342,57.4915436 173.008322,61.5473826 L172.650738,61.5473826 L172.650738,35.7820134 L169.072752,35.7820134 L169.072752,159.232215 L172.650738,159.232215 Z M209.864161,126.311946 C198.653423,126.311946 189.647248,122.465503 182.848859,114.772617 C176.05047,107.079732 172.650738,96.0161074 172.650738,81.5838926 C172.650738,75.6198658 173.486174,69.9543624 175.155973,64.5873826 C176.825772,59.2204027 179.240805,54.5084564 182.401074,50.4536913 C185.562416,46.3978523 189.468993,43.1774497 194.119732,40.7924832 C198.771544,38.406443 204.020403,37.2134228 209.864161,37.2134228 C215.828188,37.2134228 221.04698,38.406443 225.519463,40.7924832 C229.991946,43.1774497 233.690201,46.4279195 236.612081,50.5428188 C239.53396,54.6577181 241.740671,59.3696644 243.232215,64.6765101 C244.722685,69.9844295 245.467919,75.6198658 245.467919,81.5838926 C245.467919,86.9519463 244.782819,92.2899329 243.41047,97.5967785 C242.039195,102.904698 239.921611,107.675705 237.058792,111.910872 C234.197047,116.143893 230.529933,119.602685 226.056376,122.287248 C221.582819,124.970738 216.185772,126.311946 209.864161,126.311946 Z M268.72698,127.743356 L268.72698,75.68 C268.72698,70.670604 269.442148,65.7793289 270.874631,61.009396 C272.304966,56.2383893 274.511678,52.0332886 277.493691,48.3962416 C280.475705,44.7581208 284.262013,41.895302 288.854765,39.8077852 C293.446443,37.7202685 298.903624,36.8558389 305.225235,37.2134228 L305.225235,33.6354362 C299.737987,33.5173154 294.937987,34.1122148 290.823087,35.4244295 C286.707114,36.7366443 283.159195,38.5256376 280.177181,40.7924832 C277.195168,43.058255 274.810201,45.7116779 273.021208,48.7538255 C271.233558,51.7911418 269.906873,55.0770941 269.084564,58.5041611 L268.72698,58.5041611 L268.72698,35.7820134 L265.148993,35.7820134 L265.148993,127.74443 L268.72698,127.74443 L268.72698,127.743356 Z M309.697718,82.4783893 L386.629799,82.4783893 C386.869262,76.1567785 386.243221,70.0746309 384.751678,64.2297987 C383.261208,58.3849664 380.875168,53.1962416 377.595705,48.664698 C374.315168,44.1320805 370.081074,40.4939597 364.892349,37.7503356 C359.703624,35.0067114 353.531275,33.6354362 346.375302,33.6354362 C341.245638,33.6354362 336.236242,34.7092617 331.34604,36.8569128 C326.455839,39.0034899 322.161611,42.1336913 318.46443,46.2485906 C314.767248,50.3634899 311.785235,55.402953 309.519463,61.3680537 C307.253691,67.3310067 306.119732,74.129396 306.119732,81.7632215 C306.119732,88.5616107 306.895034,94.9132886 308.445638,100.817181 C309.996242,106.721074 312.381208,111.850738 315.601611,116.204027 C318.823087,120.557315 322.968054,123.92698 328.03651,126.311946 C333.104966,128.697987 339.218255,129.830872 346.375302,129.711678 C356.870872,129.711678 365.697718,126.758658 372.853691,120.855839 C380.010738,114.950872 384.244832,106.631946 385.557047,95.8969128 L381.97906,95.8969128 C380.428456,106.035973 376.461745,113.639732 370.081074,118.708188 C363.699329,123.777718 355.678926,126.311946 346.016644,126.311946 C339.456644,126.311946 333.910336,125.17906 329.377718,122.913289 C324.846174,120.647517 321.147919,117.545235 318.285101,113.609664 C315.423356,109.67302 313.305772,105.051275 311.934497,99.7433557 C310.562148,94.4365101 309.816913,88.6808054 309.697718,82.4783893 Z M383.051812,78.9004027 L309.698792,78.9004027 C310.055302,72.4595973 311.248322,66.6748993 313.275705,61.5463087 C315.304161,56.4166443 317.957584,52.0332886 321.238121,48.3962416 C324.517584,44.7581208 328.335034,41.9855034 332.688322,40.0762416 C337.041611,38.1680537 341.72349,37.2134228 346.732886,37.2134228 C352.696913,37.2134228 357.943624,38.3173154 362.477315,40.5240268 C367.008859,42.7307383 370.796242,45.7428188 373.838389,49.5591946 C376.879463,53.3755705 379.175302,57.8190604 380.725906,62.8875168 C382.27651,67.957047 383.051812,73.2950336 383.051812,78.9004027 Z M460.879463,62.9777181 L464.45745,62.9777181 C464.45745,52.7194631 461.475436,45.2649664 455.512483,40.6131544 C449.547383,35.9613423 441.436779,33.6354362 431.179597,33.6354362 C425.45396,33.6354362 420.623893,34.3516779 416.687248,35.7830872 C412.751678,37.2134228 409.531275,39.0625503 407.02604,41.3283221 C404.521879,43.594094 402.732886,46.0993289 401.65906,48.842953 C400.585235,51.5865772 400.048322,54.2110067 400.048322,56.7151678 C400.048322,61.7245638 400.942819,65.7202685 402.732886,68.7022819 C404.521879,71.6842953 407.324564,74.0102013 411.14094,75.68 C413.765369,76.8719463 416.746309,77.9457718 420.08698,78.9014765 C423.426577,79.8550336 427.303087,80.8687248 431.71651,81.9414765 C435.652081,82.8971812 439.528591,83.8507383 443.34604,84.8042953 C447.162416,85.7589262 450.532081,87.0410738 453.45396,88.6507383 C456.376913,90.2614765 458.761879,92.3189262 460.611007,94.8241611 C462.45906,97.3283221 463.383624,100.608859 463.383624,104.663624 C463.383624,108.600268 462.460134,111.939866 460.611007,114.682416 C458.777609,117.411737 456.364651,119.702966 453.544161,121.392752 C450.681342,123.121611 447.489933,124.373691 443.972081,125.148993 C440.453154,125.924295 437.02443,126.311946 433.684832,126.311946 C422.830604,126.311946 414.510604,123.896913 408.725906,119.066846 C402.941208,114.235705 400.049396,106.631946 400.049396,96.2544966 L396.470336,96.2544966 C396.470336,107.824966 399.601611,116.293154 405.863087,121.661208 C412.125638,127.028188 421.399195,129.711678 433.684832,129.711678 C437.620403,129.711678 441.58604,129.263893 445.582819,128.369396 C449.57745,127.474899 453.15651,126.014497 456.316779,123.98604 C459.450229,121.986338 462.082252,119.293327 464.009664,116.114899 C465.977987,112.893423 466.962685,108.957852 466.962685,104.30604 C466.962685,99.8926174 466.097181,96.3146309 464.368322,93.5710067 C462.638389,90.8284564 460.372617,88.5616107 457.568859,86.7726174 C454.766174,84.9836242 451.605906,83.5822819 448.08698,82.5685906 C444.548245,81.5489021 440.999433,80.5645132 437.441074,79.6155705 C433.061882,78.4666336 428.678497,77.3337401 424.291007,76.2169128 C420.534765,75.2622819 417.045906,74.129396 413.825503,72.8171812 C410.724295,71.5049664 408.249128,69.6268456 406.4,67.181745 C404.550872,64.7366443 403.627383,61.2477852 403.627383,56.7151678 C403.627383,55.8808054 403.865772,54.3892617 404.34255,52.2426846 C404.819329,50.0950336 405.953289,47.9183893 407.742282,45.7116779 C409.531275,43.5060403 412.273826,41.5377181 415.972081,39.8077852 C419.669262,38.0789262 424.738792,37.2134228 431.179597,37.2134228 C435.59302,37.2134228 439.617718,37.6912752 443.255839,38.6448322 C446.89396,39.5994631 450.025235,41.12 452.648591,43.2075168 C455.27302,45.2950336 457.300403,47.9484564 458.731812,51.1688591 C460.163221,54.3903356 460.879463,58.325906 460.879463,62.9777181 Z M543.715436,62.9777181 L547.293423,62.9777181 C547.293423,52.7194631 544.312483,45.2649664 538.348456,40.6131544 C532.38443,35.9613423 524.273826,33.6354362 514.01557,33.6354362 C508.291007,33.6354362 503.459866,34.3516779 499.524295,35.7830872 C495.587651,37.2134228 492.367248,39.0625503 489.863087,41.3283221 C487.357852,43.594094 485.568859,46.0993289 484.495034,48.842953 C483.421208,51.5865772 482.885369,54.2110067 482.885369,56.7151678 C482.885369,61.7245638 483.779866,65.7202685 485.569933,68.7022819 C487.357852,71.6842953 490.161611,74.0102013 493.977987,75.68 C496.602416,76.8719463 499.583356,77.9457718 502.922953,78.9014765 C506.26255,79.8550336 510.13906,80.8687248 514.552483,81.9414765 C518.489128,82.8971812 522.365638,83.8507383 526.182013,84.8042953 C529.999463,85.7589262 533.368054,87.0410738 536.291007,88.6507383 C539.212886,90.2614765 541.598926,92.3189262 543.44698,94.8241611 C545.296107,97.3283221 546.220671,100.608859 546.220671,104.663624 C546.220671,108.600268 545.296107,111.939866 543.44698,114.682416 C541.613891,117.41162 539.201308,119.70284 536.381208,121.392752 C533.517315,123.121611 530.32698,124.373691 526.808054,125.148993 C523.290201,125.924295 519.860403,126.311946 516.520805,126.311946 C505.666577,126.311946 497.347651,123.896913 491.562953,119.066846 C485.777181,114.235705 482.885369,106.631946 482.885369,96.2544966 L479.307383,96.2544966 C479.307383,107.824966 482.437584,116.293154 488.700134,121.661208 C494.961611,127.028188 504.235168,129.711678 516.520805,129.711678 C520.45745,129.711678 524.423087,129.263893 528.418792,128.369396 C532.413423,127.474899 535.992483,126.014497 539.153826,123.98604 C542.287276,121.986338 544.919299,119.293327 546.846711,116.114899 C548.815034,112.893423 549.798658,108.957852 549.798658,104.30604 C549.798658,99.8926174 548.934228,96.3146309 547.204295,93.5710067 C545.475436,90.8284564 543.209664,88.5616107 540.405906,86.7726174 C537.603221,84.9836242 534.441879,83.5822819 530.924027,82.5685906 C527.385292,81.5489015 523.83648,80.5645126 520.278121,79.6155705 C515.898929,78.4666334 511.515544,77.3337399 507.128054,76.2169128 C503.370738,75.2622819 499.881879,74.129396 496.661477,72.8171812 C493.560268,71.5049664 491.085101,69.6268456 489.237047,67.181745 C487.387919,64.7366443 486.463356,61.2477852 486.463356,56.7151678 C486.463356,55.8808054 486.701745,54.3892617 487.179597,52.2426846 C487.656376,50.0950336 488.790336,47.9183893 490.578255,45.7116779 C492.367248,43.5060403 495.110872,41.5377181 498.808054,39.8077852 C502.506309,38.0789262 507.574765,37.2134228 514.016644,37.2134228 C518.430067,37.2134228 522.454765,37.6912752 526.092886,38.6448322 C529.731007,39.5994631 532.861208,41.12 535.485638,43.2075168 C538.110067,45.2950336 540.13745,47.9484564 541.568859,51.1688591 C543.000268,54.3903356 543.71651,58.325906 543.71651,62.9777181 L543.715436,62.9777181 Z" id="Shape"></path>
        </g>
    </g>
</svg>