<?xml version="1.0" encoding="UTF-8"?>
<svg width="561px" height="160px" viewBox="0 0 561 160" version="1.1" xmlns="http://www.w3.org/2000/svg" xmlns:xlink="http://www.w3.org/1999/xlink">
    <!-- Generator: Sketch 50.2 (55047) - http://www.bohemiancoding.com/sketch -->
    <title>mongodb</title>
    <desc>Created with Sketch.</desc>
    <defs></defs>
    <g id="Page-1" stroke="none" stroke-width="1" fill="none" fill-rule="evenodd">
        <g id="mongodb" fill-rule="nonzero">
            <path d="M522.425205,66.2608219 C521.921096,66.3616438 521.414795,67.4739726 521.414795,68.08 C521.313973,72.1260274 521.213151,82.8460274 521.213151,90.1271233 C521.213151,90.329863 521.515616,90.7342466 521.819178,90.7342466 C523.33589,90.8350685 526.976438,90.9358904 530.111781,90.9358904 C534.460274,90.9358904 536.988493,90.329863 538.405479,89.7238356 C542.044932,87.9024658 543.764384,83.9583562 543.764384,79.6087671 C543.764384,69.8005479 536.887671,66.0580822 526.672877,66.0580822 C525.964932,65.9572603 523.94411,65.9572603 522.425205,66.2608219 Z M548.518356,111.466301 C548.518356,101.454247 541.135342,95.8915068 527.786301,95.8915068 C527.179178,95.8915068 522.931507,95.7906849 521.92,95.9923288 C521.616438,96.0942466 521.213151,96.2969863 521.213151,96.6005479 C521.213151,103.779726 521.111233,115.208767 521.414795,119.658082 C521.616438,121.579178 523.033425,124.310137 524.752877,125.118904 C526.572055,126.130411 530.718904,126.332055 533.550685,126.332055 C541.539726,126.332055 548.518356,121.88274 548.518356,111.466301 Z M501.796164,60.6991781 C502.806575,60.6991781 505.84,61.0016438 513.627397,61.0016438 C521.010411,61.0016438 526.875616,60.8 534.05589,60.8 C542.853699,60.8 554.989589,63.9342466 554.989589,77.0816438 C554.989589,83.5539726 550.438356,88.7123288 544.472329,91.2405479 C544.169863,91.3413699 544.169863,91.5430137 544.472329,91.6438356 C552.966575,93.7687671 560.451507,99.0268493 560.451507,108.936986 C560.451507,118.646575 554.383562,124.815342 545.584658,128.65863 C540.224658,130.98411 533.550685,131.792877 526.774795,131.792877 C521.616438,131.792877 507.762192,131.186849 500.076712,131.389589 C499.267945,131.084932 500.784658,127.444384 501.491507,126.838356 C503.312877,126.736438 504.727671,126.635616 506.649863,126.028493 C509.380822,125.321644 509.683288,124.511781 510.087671,120.366027 C510.290411,116.826301 510.290411,104.284932 510.290411,95.3863014 C510.290411,83.149589 510.392329,74.8569863 510.290411,70.8120548 C510.189589,67.6778082 509.07726,66.6652055 506.852603,66.0580822 C505.132055,65.7556164 502.30137,65.350137 499.974795,65.0476712 C499.468493,64.5413699 501.187945,61.1024658 501.796164,60.6991781 Z M443.442192,123.602192 C445.870685,125.522192 450.623562,126.330959 454.871233,126.330959 C460.332055,126.330959 465.792877,125.321644 471.052055,120.566575 C476.412055,115.713973 480.153425,108.230137 480.153425,96.2969863 C480.153425,84.8679452 475.804932,75.5638356 466.905205,70.1041096 C461.848767,66.9676712 455.376438,65.6547945 447.892603,65.6547945 C445.667945,65.6547945 443.54411,65.7556164 442.230137,66.3616438 C441.925479,66.5643836 441.21863,67.4739726 441.21863,67.9791781 C441.01589,70.0021918 441.01589,85.5758904 441.01589,94.6783562 C441.01589,104.083288 441.01589,117.230685 441.21863,118.747397 C441.21863,120.265205 441.925479,122.590685 443.443288,123.602192 L443.442192,123.602192 Z M433.329315,61.0016438 C439.701918,61.0016438 444.252055,60.6991781 456.286027,60.6991781 C466.398904,60.6991781 474.894247,63.4290411 480.962192,68.5863014 C488.34411,74.9578082 492.188493,83.7567123 492.188493,94.4756164 C492.188493,109.746849 485.209863,118.545753 478.231233,123.602192 C471.254795,128.759452 462.152329,131.792877 449.207671,131.792877 C442.330959,131.792877 430.49863,131.591233 420.688219,131.489315 C420.082192,130.579726 421.396164,127.04 422.204932,126.939178 C424.835068,126.635616 425.543014,126.533699 426.858082,126.029589 C428.980822,125.219726 429.386301,124.107397 429.689863,120.366027 C429.992329,113.387397 429.891507,104.993973 429.891507,95.4871233 C429.891507,88.7123288 429.992329,75.4630137 429.789589,71.2153425 C429.487123,67.6767123 427.970411,66.7660274 424.93589,66.1589041 C423.419178,65.8564384 421.396164,65.4509589 418.565479,65.1484932 C418.16,64.4394521 419.980274,61.3052055 420.485479,60.6991781 C422.407671,60.6980822 429.789589,61.0016438 433.329315,61.0016438 Z" id="Shape" fill="#9D9D9D"></path>
            <path d="M298.118356,127.545205 C295.590137,127.241644 293.769863,126.838356 291.545205,125.826849 C291.241644,125.62411 290.735342,124.613699 290.735342,124.208219 C290.533699,120.668493 290.533699,110.555616 290.533699,103.780822 C290.533699,98.3189041 289.62411,93.5660274 287.297534,90.2290411 C284.566575,86.3846575 280.623562,84.1610959 275.566027,84.1610959 C271.116712,84.1610959 265.149589,87.1945205 260.193973,91.4421918 C260.093151,91.5430137 259.284384,92.2520548 259.385205,91.1386301 C259.385205,90.0263014 259.587945,87.8016438 259.688767,86.2838356 C259.790685,84.8679452 258.980822,84.1610959 258.980822,84.1610959 C255.744658,85.7786301 246.643288,87.9024658 243.305205,88.2049315 C240.878904,88.7123288 240.271781,91.0378082 242.801096,91.8465753 L242.901918,91.8465753 C245.630685,92.6553425 247.452055,93.5660274 248.866849,94.4767123 C249.878356,95.2854795 249.777534,96.3978082 249.777534,97.3084932 C249.878356,104.892055 249.878356,116.52274 249.57589,122.894247 C249.475068,125.422466 248.767123,126.332055 246.945753,126.736438 L247.148493,126.635616 C245.732603,126.939178 244.620274,127.241644 242.900822,127.444384 C242.293699,128.051507 242.293699,131.287671 242.900822,131.995616 C244.013151,131.995616 249.878356,131.692055 254.734247,131.692055 C261.408219,131.692055 264.847123,131.995616 266.565479,131.995616 C267.273425,131.186849 267.476164,128.152329 267.071781,127.444384 C265.149589,127.343562 263.733699,127.141918 262.419726,126.736438 C260.599452,126.330959 260.093151,125.422466 259.991233,123.29863 C259.790685,117.937534 259.790685,106.611507 259.790685,98.9260274 C259.790685,96.8021918 260.396712,95.7906849 261.00274,95.1835616 C263.329315,93.1616438 267.071781,91.7457534 270.408767,91.7457534 C273.644932,91.7457534 275.767671,92.7572603 277.386301,94.0723288 C279.610959,95.8915068 280.318904,98.5216438 280.622466,100.44274 C281.127671,104.791233 280.926027,113.387397 280.926027,120.871233 C280.926027,124.916164 280.622466,125.927671 279.106849,126.432877 C278.397808,126.736438 276.577534,127.141918 274.453699,127.342466 C273.745753,128.051507 273.948493,131.186849 274.453699,131.894795 C277.386301,131.894795 280.825205,131.591233 285.881644,131.591233 C292.151233,131.591233 296.19726,131.894795 297.81589,131.894795 C298.32,131.287671 298.52274,128.355068 298.118356,127.545205 Z M326.131507,88.9150685 C320.772603,88.9150685 317.434521,93.0608219 317.434521,99.5320548 C317.434521,106.106301 320.367123,113.690959 328.659726,113.690959 C330.075616,113.690959 332.705753,113.083836 333.917808,111.667945 C335.84,109.848767 337.155068,106.207123 337.155068,102.363836 C337.155068,93.970411 333.008219,88.9139726 326.131507,88.9139726 L326.131507,88.9150685 Z M325.423562,133.613151 C323.401644,133.613151 321.984658,134.220274 321.075068,134.726575 C316.827397,137.455342 314.906301,140.085479 314.906301,143.221918 C314.906301,146.153425 316.01863,148.478904 318.446027,150.501918 C321.37863,153.030137 325.423562,154.244384 330.580822,154.244384 C340.896438,154.244384 345.447671,148.681644 345.447671,143.221918 C345.447671,139.377534 343.525479,136.849315 339.582466,135.434521 C336.750685,134.220274 331.593425,133.613151 325.423562,133.613151 Z M326.131507,159.907945 C319.96274,159.907945 315.512329,158.592877 311.670137,155.660274 C307.927671,152.828493 306.310137,148.580822 306.310137,145.648219 C306.310137,144.839452 306.512877,142.613699 308.333151,140.591781 C309.444384,139.377534 311.872877,137.052055 317.63726,133.107945 C317.838904,133.007123 317.939726,132.906301 317.939726,132.702466 C317.939726,132.500822 317.736986,132.298082 317.535342,132.198356 C312.782466,130.378082 311.366575,127.444384 310.961096,125.826849 L310.961096,125.62411 C310.86137,125.016986 310.65863,124.410959 311.569315,123.803836 C312.27726,123.29863 313.288767,122.691507 314.4,121.984658 C316.119452,120.972055 317.939726,119.859726 319.052055,118.949041 C319.254795,118.747397 319.254795,118.545753 319.254795,118.343014 C319.254795,118.140274 319.052055,117.937534 318.849315,117.837808 C311.772055,115.511233 308.232329,110.252055 308.232329,102.363836 C308.232329,97.2065753 310.557808,92.5545205 314.703562,89.6219178 C317.535342,87.3972603 324.614795,84.6663014 329.266849,84.6663014 L329.570411,84.6663014 C334.323288,84.7671233 336.952329,85.7786301 340.693699,87.0936986 C342.716712,87.8016438 344.638904,88.1041096 347.269041,88.1041096 C351.212055,88.1041096 352.931507,86.8909589 354.346301,85.4761644 C354.448219,85.6778082 354.650959,86.1841096 354.751781,87.4980822 C354.852603,88.8131507 354.448219,90.7342466 353.436712,92.150137 C352.627945,93.2624658 350.807671,94.0723288 348.987397,94.0723288 L348.481096,94.0723288 C346.660822,93.869589 345.850959,93.6668493 345.850959,93.6668493 L345.447671,93.869589 C345.346849,94.0723288 345.447671,94.2739726 345.548493,94.5775342 L345.650411,94.780274 C345.852055,95.689863 346.256438,98.419726 346.256438,99.1287671 C346.256438,107.42137 342.919452,111.060822 339.379726,113.791781 C335.940822,116.32 331.997808,117.937534 327.547397,118.343014 C327.446575,118.343014 327.043288,118.343014 326.131507,118.443836 C325.626301,118.443836 324.918356,118.545753 324.816438,118.545753 L324.715616,118.545753 C323.906849,118.747397 321.884932,119.758904 321.884932,121.47726 C321.884932,122.993973 322.794521,124.815342 327.143014,125.118904 C328.052603,125.219726 328.962192,125.219726 329.974795,125.321644 C335.739178,125.724932 342.919452,126.231233 346.256438,127.343562 C350.908493,129.061918 353.841096,133.208767 353.841096,138.164384 C353.841096,145.649315 348.482192,152.626849 339.582466,156.974247 C335.233973,158.896438 330.884384,159.907945 326.131507,159.907945 Z M383.775342,89.420274 C381.652603,89.420274 379.730411,89.9243836 378.314521,90.9358904 C374.371507,93.3632877 372.348493,98.2180822 372.348493,105.296438 C372.348493,118.545753 379.022466,127.849863 388.529315,127.849863 C391.361096,127.849863 393.585753,127.04 395.506849,125.422466 C398.439452,122.993973 399.95726,118.140274 399.95726,111.364384 C399.95726,98.2180822 393.383014,89.4191781 383.776438,89.4191781 L383.775342,89.420274 Z M385.596712,132.703562 C368.404384,132.703562 362.235616,120.062466 362.235616,108.230137 C362.235616,99.9375342 365.572603,93.5660274 372.246575,89.0147945 C377.000548,86.0821918 382.66411,84.4646575 387.720548,84.4646575 C400.866849,84.4646575 410.070137,93.869589 410.070137,107.42137 C410.070137,116.623562 406.429589,123.904658 399.450959,128.355068 C396.113973,130.579726 390.349589,132.703562 385.595616,132.703562 L385.596712,132.703562 Z M205.381918,89.4191781 C203.258082,89.4191781 201.336986,89.9243836 199.92,90.9358904 C195.976986,93.3632877 193.953973,98.2180822 193.953973,105.296438 C193.953973,118.545753 200.627945,127.849863 210.134795,127.849863 C212.966575,127.849863 215.191233,127.04 217.113425,125.422466 C220.044932,122.993973 221.56274,118.140274 221.56274,111.364384 C221.56274,98.2180822 215.090411,89.4191781 205.381918,89.4191781 Z M207.202192,132.703562 C190.009863,132.703562 183.841096,120.062466 183.841096,108.230137 C183.841096,99.9375342 187.178082,93.5660274 193.852055,89.0147945 C198.606027,86.0821918 204.269589,84.4646575 209.326027,84.4646575 C222.473425,84.4646575 231.675616,93.869589 231.675616,107.42137 C231.675616,116.623562 228.035068,123.904658 221.056438,128.355068 C217.820274,130.579726 212.05589,132.703562 207.202192,132.703562 Z M91.609863,131.692055 C91.4071233,131.389589 91.2043836,130.478904 91.3063014,129.366575 C91.3063014,128.556712 91.5090411,128.051507 91.609863,127.849863 C93.7336986,127.545205 94.8460274,127.241644 96.0591781,126.939178 C98.0821918,126.432877 98.8909589,125.321644 98.9917808,122.793425 C99.2964384,116.725479 99.2964384,105.195616 99.1945205,97.2065753 L99.1945205,97.0038356 C99.1945205,96.0942466 99.1945205,94.9808219 98.0821918,94.1720548 C96.4635616,93.1616438 94.5424658,92.2520548 92.0142466,91.5419178 C91.1046575,91.2405479 90.4975342,90.7342466 90.5983562,90.1282192 C90.5983562,89.5210959 91.2054795,88.8131507 92.5205479,88.610411 C95.8575342,88.3068493 104.553425,86.1841096 107.992329,84.6663014 C108.195068,84.8679452 108.49863,85.4761644 108.49863,86.2849315 L108.397808,87.3961644 C108.29589,88.509589 108.195068,89.8246575 108.195068,91.1386301 C108.195068,91.5430137 108.600548,91.8465753 109.003836,91.8465753 C109.206575,91.8465753 109.409315,91.7457534 109.610959,91.6438356 C116.083288,86.5873973 121.948493,84.7671233 124.981918,84.7671233 C129.93863,84.7671233 133.781918,87.0936986 136.714521,91.9473973 C136.916164,92.2520548 137.118904,92.3528767 137.422466,92.3528767 C137.62411,92.3528767 137.926575,92.2520548 138.028493,92.0493151 C143.995616,87.4980822 149.96274,84.7671233 153.905753,84.7671233 C163.310685,84.7671233 168.873425,91.7457534 168.873425,103.578082 C168.873425,106.915068 168.873425,111.263562 168.772603,115.208767 C168.772603,118.747397 168.671781,121.983562 168.671781,124.310137 C168.671781,124.814247 169.37863,126.432877 170.490959,126.736438 C171.906849,127.444384 173.829041,127.747945 176.35726,128.152329 L176.458082,128.152329 C176.660822,128.860274 176.256438,131.489315 175.852055,131.995616 C175.244932,131.995616 174.334247,131.995616 173.323836,131.894795 C170.76381,131.761222 168.200768,131.69362 165.63726,131.692055 C159.367671,131.692055 156.131507,131.792877 152.995068,131.995616 C152.794521,131.186849 152.692603,128.759452 152.995068,128.152329 C154.816438,127.849863 155.726027,127.545205 156.839452,127.24274 C158.862466,126.635616 159.367671,125.724932 159.469589,123.09589 C159.469589,121.174795 159.872877,104.791233 159.265753,100.847123 C158.659726,96.8021918 155.625205,92.0493151 148.950137,92.0493151 C146.421918,92.0493151 142.478904,93.0608219 138.635616,95.9923288 C138.433973,96.1950685 138.230137,96.700274 138.230137,97.0038356 L138.230137,97.1057534 C138.635616,99.2284932 138.635616,101.656986 138.635616,105.398356 L138.635616,111.971507 C138.635616,116.52274 138.533699,120.770411 138.635616,124.005479 C138.635616,126.231233 139.950685,126.736438 141.063014,127.141918 C141.670137,127.241644 142.073425,127.343562 142.579726,127.444384 C143.489315,127.647123 144.4,127.849863 145.81589,128.152329 C146.01863,128.557808 146.01863,129.871781 145.715068,130.98411 C145.613151,131.591233 145.410411,131.893699 145.309589,131.995616 C141.871781,131.894795 138.332055,131.792877 133.174795,131.792877 C131.658082,131.792877 129.027945,131.894795 126.803288,131.894795 C124.981918,131.894795 123.263562,131.995616 122.253151,131.995616 C122.151233,131.792877 121.948493,131.086027 121.948493,129.972603 C121.948493,129.063014 122.151233,128.355068 122.353973,128.152329 C122.859178,128.051507 123.263562,127.950685 123.769863,127.950685 C124.981918,127.747945 125.994521,127.545205 127.004932,127.343562 C128.725479,126.838356 129.331507,125.927671 129.432329,123.703014 C129.73589,118.646575 130.039452,104.185205 129.331507,100.543562 C128.118356,94.6783562 124.78137,91.7457534 119.420274,91.7457534 C116.286027,91.7457534 112.340822,93.2624658 109.105753,95.6909589 C108.599452,96.0942466 108.195068,97.1046575 108.195068,98.0153425 L108.195068,103.982466 C108.195068,111.263562 108.195068,120.366027 108.29589,124.310137 C108.397808,125.522192 108.801096,126.939178 111.127671,127.444384 C111.633973,127.545205 112.44274,127.747945 113.454247,127.849863 L115.273425,128.152329 C115.47726,128.759452 115.375342,131.186849 114.970959,131.995616 C113.959452,131.995616 112.746301,131.894795 111.329315,131.894795 C109.206575,131.792877 106.475616,131.692055 103.442192,131.692055 C99.9024658,131.692055 97.3742466,131.792877 95.3512329,131.894795 C93.9353425,131.692055 92.8230137,131.692055 91.609863,131.692055 Z" id="Shape" fill="#9D9D9D"></path>
            <path d="M38.4142466,155.963836 L34.2684932,154.546849 C34.2684932,154.546849 34.7747945,133.411507 27.1890411,131.894795 C22.1336986,126.028493 28,-116.886575 46.2027397,131.084932 C46.2027397,131.084932 39.9320548,134.219178 38.819726,139.580274 C37.6054795,144.839452 38.4142466,155.963836 38.4142466,155.963836 Z" id="Shape" fill="#FFFFFF"></path>
            <path d="M38.4142466,155.963836 L34.2684932,154.546849 C34.2684932,154.546849 34.7747945,133.411507 27.1890411,131.894795 C22.1336986,126.028493 28,-116.886575 46.2027397,131.084932 C46.2027397,131.084932 39.9320548,134.219178 38.819726,139.580274 C37.6054795,144.839452 38.4142466,155.963836 38.4142466,155.963836 Z" id="Shape" fill="#A6A385"></path>
            <path d="M40.64,135.535342 C40.64,135.535342 76.9468493,111.667945 68.450411,62.0120548 C60.259726,25.910137 40.9435616,14.0778082 38.819726,9.52657534 C36.4942466,6.29041096 34.2684932,0.627945205 34.2684932,0.627945205 L35.7863014,101.048767 C35.7863014,101.150685 32.6509589,131.792877 40.6410959,135.536438" id="Shape" fill="#FFFFFF"></path>
            <path d="M40.64,135.535342 C40.64,135.535342 76.9468493,111.667945 68.450411,62.0120548 C60.259726,25.910137 40.9435616,14.0778082 38.819726,9.52657534 C36.4942466,6.29041096 34.2684932,0.627945205 34.2684932,0.627945205 L35.7863014,101.048767 C35.7863014,101.150685 32.6509589,131.792877 40.6410959,135.536438" id="Shape" fill="#9D9D9D"></path>
            <path d="M32.1457534,136.849315 C32.1457534,136.849315 -1.93643836,113.589041 0.0865753425,72.6323288 C2.00767123,31.6745205 26.0767123,11.549589 30.7287671,7.9090411 C33.7632877,4.67287671 33.8641096,3.45863014 34.0668493,0.222465753 C36.1906849,4.77369863 35.7863014,68.2838356 36.0887671,75.7665753 C36.9983562,104.588493 34.4712329,131.389589 32.1457534,136.849315 Z" id="Shape" fill="#FFFFFF"></path>
            <path d="M32.1457534,136.849315 C32.1457534,136.849315 -1.93643836,113.589041 0.0865753425,72.6323288 C2.00767123,31.6745205 26.0767123,11.549589 30.7287671,7.9090411 C33.7632877,4.67287671 33.8641096,3.45863014 34.0668493,0.222465753 C36.1906849,4.77369863 35.7863014,68.2838356 36.0887671,75.7665753 C36.9983562,104.588493 34.4712329,131.389589 32.1457534,136.849315 Z" id="Shape" fill="#D9D9D9"></path>
        </g>
    </g>
</svg>