<?xml version="1.0" encoding="UTF-8"?>
<svg width="158px" height="140px" viewBox="0 0 158 140" version="1.1" xmlns="http://www.w3.org/2000/svg" xmlns:xlink="http://www.w3.org/1999/xlink">
    <!-- Generator: Sketch 50.2 (55047) - http://www.bohemiancoding.com/sketch -->
    <title>react</title>
    <desc>Created with Sketch.</desc>
    <defs></defs>
    <g id="Page-1" stroke="none" stroke-width="1" fill="none" fill-rule="evenodd">
        <g id="react" transform="translate(-10.000000, -10.000000)" fill-rule="nonzero">
            <path d="M0.524521739,79.826087 C0.524521739,93.1930435 13.5770435,105.670957 34.1544348,112.704696 C30.0452174,133.391304 33.4184348,150.065391 44.6838261,156.562087 C56.2629565,163.240348 73.5137391,158.617739 89.8873043,144.304696 C105.847652,158.039652 121.977739,163.44487 133.233391,156.929391 C144.802087,150.232348 148.32,132.427826 144.097391,111.094957 C165.530435,104.009043 177.519304,93.3690435 177.519304,79.826087 C177.519304,66.7693913 164.44313,55.474087 144.142609,48.4855652 C148.688696,26.2713043 144.83687,10.002087 133.104696,3.23686957 C121.794087,-3.28556522 105.476174,2.39930435 89.2813913,16.4932174 C72.4326957,1.53391304 56.2761739,-3.03304348 44.5565217,3.75095652 C33.2563478,10.2921739 30.032,27.2695652 34.1544348,48.3387826 C14.2713043,55.2709565 0.524521739,66.8222609 0.524521739,79.826087 Z" id="Shape" fill-opacity="0" fill="#FFFFFF"></path>
            <path d="M139.843478,55.4253913 C138.170413,54.8514974 136.483153,54.3198504 134.783304,53.8309565 C135.0652,52.6854996 135.325883,51.534926 135.565217,50.3798261 C139.395478,31.7864348 136.89113,16.8076522 128.338783,11.8768696 C120.13913,7.14782609 106.728348,12.0786087 93.184,23.8650435 C91.8493796,25.0291082 90.5443834,26.2267078 89.2702609,27.4566957 C88.4170157,26.6388266 87.5486928,25.8368339 86.6657391,25.0511304 C72.4709565,12.4473043 58.2427826,7.13669565 49.6994783,12.082087 C41.5074783,16.8243478 39.0810435,30.9064348 42.5293913,48.5273043 C42.8724778,50.2722845 43.2598492,52.0082651 43.6911304,53.7335652 C41.677913,54.3053913 39.7335652,54.9147826 37.8733913,55.5631304 C21.232,61.3648696 10.6038261,70.4584348 10.6038261,79.890087 C10.6038261,89.632 22.0125217,99.4031304 39.3467826,105.327304 C40.7523352,105.805447 42.1695869,106.248483 43.5972174,106.656 C43.1334274,108.514741 42.7216725,110.38608 42.3624348,112.267826 C39.0747826,129.582609 41.6424348,143.330783 49.8128696,148.043826 C58.2518261,152.909913 72.4153043,147.908174 86.2073043,135.852522 C87.2973913,134.899478 88.3916522,133.888696 89.4873043,132.829217 C90.8673544,134.160737 92.2842524,135.453529 93.7363478,136.706087 C107.095652,148.201739 120.289391,152.843826 128.45287,148.118261 C136.884174,143.237565 139.623652,128.468174 136.066087,110.498783 C135.794783,109.126261 135.478261,107.724522 135.123478,106.297043 C136.118261,106.003478 137.094261,105.700174 138.046609,105.384348 C156.066783,99.4142609 167.790609,89.762087 167.790609,79.890087 C167.790609,70.4243478 156.820174,61.2695652 139.843478,55.4253913 Z" id="Shape" fill="#9C9C9C"></path>
            <path d="M135.934609,99.0107826 C135.075478,99.2953043 134.193391,99.570087 133.294609,99.8365217 C131.305043,93.5387826 128.619826,86.8417391 125.334957,79.9234783 C128.470261,73.1686957 131.05113,66.557913 132.985043,60.3005217 C134.592696,60.7666087 136.153739,61.2570435 137.657739,61.7753043 C152.203826,66.781913 161.076174,74.1857391 161.076174,79.890087 C161.076174,85.9666087 151.493565,93.8553043 135.935304,99.0107826 L135.934609,99.0107826 Z M129.478957,111.80313 C131.051826,119.74887 131.276522,126.93287 130.234435,132.54887 C129.298087,137.59513 127.415652,140.959304 125.088,142.306783 C120.134261,145.174261 109.540174,141.446957 98.1161739,131.616 C96.8062609,130.489043 95.4866087,129.285565 94.1634783,128.012522 C98.5926957,123.168 103.01913,117.536 107.33913,111.282087 C114.938435,110.608 122.117565,109.505391 128.628174,108.000696 C128.948174,109.294609 129.233391,110.562783 129.478957,111.80313 Z M64.192,141.811478 C59.3523478,143.520696 55.4977391,143.569391 53.168,142.226087 C48.2093913,139.366957 46.1488696,128.326957 48.96,113.52 C49.2942887,111.770129 49.6770446,110.029866 50.1078261,108.301217 C56.546087,109.725217 63.6730435,110.749913 71.2904348,111.367652 C75.6389565,117.487304 80.1933913,123.112348 84.7833043,128.038261 C83.8078256,128.981888 82.8092622,129.901355 81.7885217,130.795826 C75.6897391,136.127304 69.5784348,139.90887 64.1926957,141.811478 L64.192,141.811478 Z M41.5186087,98.9732174 C33.853913,96.3533913 27.5241739,92.9488696 23.1853913,89.234087 C19.2869565,85.8949565 17.3182609,82.5801739 17.3182609,79.890087 C17.3182609,74.1669565 25.8518261,66.866087 40.0841739,61.904 C41.8705386,61.2839077 43.6746737,60.7162443 45.4942609,60.2017391 C47.4615652,66.5996522 50.0417391,73.2890435 53.1554783,80.0535652 C50.0013913,86.9189565 47.3843478,93.7147826 45.3989565,100.187826 C44.0957505,99.814812 42.8019105,99.4098201 41.5186087,98.9732174 Z M49.1193043,47.2375652 C46.1648696,32.1398261 48.1266087,20.7513043 53.0636522,17.8935652 C58.3227826,14.8493913 69.9506087,19.1902609 82.2066087,30.0723478 C82.989913,30.768 83.7766957,31.4963478 84.5648696,32.2497391 C79.9986087,37.1533913 75.485913,42.736 71.1749565,48.8201739 C63.7822609,49.5053913 56.7053913,50.605913 50.1996522,52.08 C49.7989032,50.4749563 49.4386729,48.8600667 49.1193043,47.2368696 L49.1193043,47.2375652 Z M116.922435,63.9798261 C115.385793,61.3255166 113.792148,58.7046187 112.142609,56.1189565 C117.158261,56.752 121.96313,57.5937391 126.47513,58.624 C125.120696,62.9655652 123.432348,67.5053913 121.444174,72.1593043 C119.991525,69.4029842 118.483978,66.6759478 116.922435,63.9798261 Z M89.2723478,37.0483478 C92.3693913,40.4034783 95.4713043,44.1502609 98.5224348,48.2149565 C92.3332249,47.9224905 86.1336885,47.9210977 79.9443478,48.2107826 C82.9982609,44.1836522 86.1266087,40.4424348 89.2723478,37.0483478 Z M61.4448696,64.0257391 C59.9028773,66.7004188 58.423518,69.4107219 57.008,72.1544348 C55.0525217,67.5165217 53.3794783,62.9565217 52.0132174,58.5530435 C56.498087,57.5492174 61.2806957,56.7290435 66.2636522,56.1064348 C64.5956267,58.7081214 62.9889229,61.3486173 61.4448696,64.0257391 Z M66.4069565,104.153043 C61.2591304,103.578435 56.4041739,102.8 51.9206957,101.824 C53.3085217,97.3426087 55.0184348,92.6845217 57.0156522,87.9471304 C58.4371376,90.692877 59.9229976,93.4048151 61.472,96.0806957 C63.0525992,98.810315 64.6980522,101.501862 66.4069565,104.153043 Z M89.458087,123.206261 C86.2754783,119.771826 83.1012174,115.973565 80.0006957,111.888 C83.010087,112.006261 86.0786087,112.066087 89.1972174,112.066087 C92.4013913,112.066087 95.5686957,111.994435 98.685913,111.855304 C95.6250435,116.015304 92.5342609,119.81913 89.458087,123.206261 Z M121.508174,87.7057391 C123.609043,92.4946087 125.380174,97.1276522 126.786783,101.533217 C122.22887,102.573217 117.308522,103.410783 112.123826,104.032696 C113.785288,101.398758 115.394186,98.732027 116.949565,96.034087 C118.530703,93.2921361 120.050616,90.5153325 121.508174,87.7057391 Z M111.132522,92.6796522 C108.751443,96.8159694 106.236491,100.873766 103.591652,104.846609 C98.928,105.179826 94.1085217,105.351652 89.1972174,105.351652 C84.306087,105.351652 79.5478261,105.199304 74.9655652,104.902261 C72.2521296,100.938668 69.6896018,96.8738489 67.2834783,92.7165217 C64.8886013,88.5812517 62.6516271,84.3565264 60.5773913,80.0514783 C62.6463513,75.7451403 64.8765657,71.518152 67.2633043,67.3794783 L67.2633043,67.3808696 C69.6492942,63.2413145 72.1916484,59.1938755 74.8848696,55.2473043 C79.5596522,54.893913 84.3526957,54.7088696 89.197913,54.7088696 C94.0646957,54.7088696 98.864,54.8953043 103.537391,55.2514783 C106.203371,59.1919763 108.729465,63.2253267 111.110957,67.344 C113.505903,71.4734659 115.76588,75.6797484 117.887304,79.9561739 C115.787702,84.2761695 113.534912,88.5200186 111.133217,92.6796522 L111.132522,92.6796522 Z M124.985043,17.693913 C130.248348,20.7297391 132.295652,32.9711304 128.988522,49.0246957 C128.771757,50.0704884 128.536124,51.1122814 128.281739,52.1495652 C121.760696,50.6448696 114.678957,49.5248696 107.264696,48.8292174 C102.945391,42.6789565 98.4702609,37.0866087 93.9777391,32.2462609 C95.1549657,31.1113377 96.3602071,30.0058372 97.5923478,28.9307826 C109.197217,18.8313043 120.04313,14.8438261 124.985043,17.693913 Z" id="Shape" fill="#D9D9D9"></path>
            <path d="M89.1972174,65.853913 C96.9495652,65.853913 103.233391,72.1384348 103.233391,79.890087 C103.233391,87.6424348 96.9495652,93.9269565 89.1972174,93.9269565 C81.4455652,93.9269565 75.1610435,87.6424348 75.1610435,79.890087 C75.1610435,72.1384348 81.4455652,65.853913 89.1972174,65.853913" id="Shape" fill="#9C9C9C"></path>
        </g>
    </g>
</svg>