<?xml version="1.0" encoding="UTF-8"?>
<svg width="215px" height="161px" viewBox="0 0 215 161" version="1.1" xmlns="http://www.w3.org/2000/svg" xmlns:xlink="http://www.w3.org/1999/xlink">
    <!-- Generator: Sketch 50.2 (55047) - http://www.bohemiancoding.com/sketch -->
    <title>Shape</title>
    <desc>Created with Sketch.</desc>
    <defs></defs>
    <g id="Page-1" stroke="none" stroke-width="1" fill="none" fill-rule="evenodd">
        <g id="sass" fill="#9D9D9D" fill-rule="nonzero">
            <path d="M184.636028,92.1171054 C177.172814,92.1592163 170.710255,93.9516385 165.290044,96.6204671 C163.288735,92.6595435 161.287426,89.1985301 160.954292,86.6139232 C160.579046,83.6119601 160.120413,81.7770101 160.579046,78.1917488 C161.037262,74.6056536 163.121959,69.5189938 163.121959,69.1020545 C163.079848,68.7268091 162.662909,66.8922761 158.368851,66.8505821 C154.074793,66.8088882 150.363616,67.6844608 149.946676,68.810197 C149.529737,69.9359332 148.695858,72.520957 148.153837,75.1893687 C147.403346,79.1085984 139.564887,92.992678 135.103636,100.289116 C133.644349,97.4539288 132.393531,94.9522929 132.14295,92.9505671 C131.768122,89.9490209 131.309071,88.1140709 131.768122,84.5288097 C132.226755,80.9427145 134.311452,75.8564716 134.311452,75.4395323 C134.269758,75.0642869 133.852818,73.2297539 129.55876,73.1880599 C125.263868,73.146366 121.553525,74.0219386 121.136586,75.1476748 C120.719646,76.273411 120.261013,78.9418227 119.343747,81.5268465 C118.467757,84.1118703 108.044274,107.293697 105.334168,113.339317 C103.958268,116.424668 102.749561,118.88461 101.873572,120.552368 C100.997999,122.220125 101.831878,120.677449 101.74849,120.844225 C100.997999,122.261819 100.58106,123.054004 100.58106,123.054004 L100.58106,123.096114 C99.9973448,124.138463 99.3719358,125.1387 99.0796614,125.1387 C98.8711917,125.1387 98.4542524,122.345207 99.1630492,118.509782 C100.705725,110.462436 104.458179,97.912979 104.416902,97.4543458 C104.416902,97.2458761 105.125282,95.0356807 101.998237,93.9103615 C98.9545796,92.7846253 97.8709542,94.6608523 97.6203737,94.6608523 C97.3702101,94.6608523 97.1617405,95.3279552 97.1617405,95.3279552 C97.1617405,95.3279552 100.538949,81.1941289 90.6991809,81.1941289 C84.5284788,81.1941289 76.0229165,87.9068521 71.8118293,94.0358602 C69.1434176,95.4951479 63.4730427,98.5800819 57.4691164,101.87432 C55.1759501,103.125138 52.7993959,104.459343 50.5479236,105.668467 L50.0897072,105.167306 C38.1652425,92.4506569 16.109152,83.4447674 17.0264185,66.3502549 C17.35997,60.137859 19.5280545,43.7521434 59.3878712,23.9058313 C92.0342206,7.64519755 118.176316,12.1064484 122.720538,22.0296044 C129.183098,36.2055415 108.753071,62.5561071 74.8146263,66.3502549 C61.8895072,67.8095426 55.0929792,62.8062707 53.3839449,60.9300437 C51.5911058,58.9704288 51.3409422,58.887041 50.6738392,59.2622864 C49.589797,59.8460014 50.2568999,61.5971466 50.6738392,62.6394949 C51.6744936,65.2662127 55.8438869,69.9359332 62.9318555,72.2707934 C69.1438345,74.3137961 84.320843,75.4395323 102.666173,68.3515637 C123.221282,60.3880226 139.273446,38.2902382 134.562032,19.8198259 C129.76723,1.01586223 98.580168,-5.15483982 69.1025575,5.31033731 C51.5489949,11.5644272 32.5365615,21.3208075 18.8609516,34.1208449 C2.60031778,49.2974364 0.0152939428,62.5561071 1.0993362,68.0597062 C4.89390102,87.6975485 31.9528465,100.497586 42.793269,109.962109 C42.2512479,110.253549 41.7509207,110.545407 41.2922874,110.795987 C35.8720762,113.463982 15.2335794,124.263128 10.0635318,135.686848 C4.22638116,148.611967 10.9807983,157.910131 15.483743,159.160949 C29.4095166,163.038485 43.6688416,156.075598 51.3822192,144.609767 C59.0534859,133.143935 58.1366363,118.259201 54.592652,111.46309 L54.4671533,111.212927 L58.7199344,108.711291 C61.4721509,107.085227 64.1822565,105.584246 66.5583938,104.291317 C65.2246049,107.918689 64.2652275,112.213164 63.7653172,118.467254 C63.1816022,125.805803 66.1835653,135.311603 70.1444889,139.064057 C71.8956341,140.689703 73.9803307,140.731814 75.2728427,140.731814 C79.8591753,140.731814 81.9438719,136.937249 84.2370382,132.393028 C87.0722257,126.847735 89.5738616,120.426869 89.5738616,120.426869 C89.5738616,120.426869 86.4468167,137.813239 94.9940729,137.813239 C98.1211178,137.813239 101.248163,133.768927 102.665757,131.684231 L102.665757,131.725925 C102.665757,131.725925 102.749144,131.600843 102.91592,131.308985 C103.090862,131.050312 103.257719,130.786262 103.416247,130.517218 L103.416247,130.43383 C104.667065,128.265745 107.460559,123.304167 111.629952,115.090462 C117.008052,104.500203 122.178517,91.2415328 122.178517,91.2415328 C122.178517,91.2415328 122.678844,94.4936596 124.22152,99.830483 C125.138369,102.999639 127.139678,106.459818 128.682354,109.837027 C127.431536,111.588172 126.681045,112.589243 126.681045,112.589243 L126.722739,112.630937 C125.722501,113.965143 124.596348,115.383154 123.429335,116.800331 C119.176554,121.88699 114.089894,127.682864 113.422791,129.350621 C112.630606,131.309819 112.797382,132.769107 114.340058,133.936954 C115.465794,134.770833 117.467103,134.937191 119.593493,134.770833 C123.429335,134.520252 126.097747,133.561709 127.431953,132.977577 C129.516649,132.227086 131.893203,131.10135 134.18637,129.433592 C138.355763,126.348658 140.899093,121.970795 140.648929,116.133645 C140.523848,112.923212 139.481499,109.754473 138.188987,106.75251 C138.564233,106.210489 138.939895,105.668051 139.314723,105.084752 C145.902365,95.453037 150.989025,84.863195 150.989025,84.863195 C150.989025,84.863195 151.489352,88.1153218 153.032027,93.4521452 C153.823795,96.1622508 155.408582,99.122937 156.826175,102.041512 C150.655473,107.086478 146.777937,112.923629 145.443732,116.759471 C142.98379,123.847439 144.90171,127.057872 148.529083,127.808363 C150.154729,128.141914 152.490006,127.391423 154.240734,126.640933 C156.408819,125.932136 159.035537,124.722595 161.454202,122.930173 C165.623595,119.844822 169.626213,115.550346 169.417743,109.75489 C169.292661,107.086478 168.583864,104.45976 167.624904,101.958124 C172.878339,99.7900399 179.674033,98.5392219 188.305095,99.5815702 C206.858895,101.749655 210.527961,113.340568 209.819581,118.177064 C209.110784,123.013977 205.233248,125.681972 203.940319,126.515851 C202.647807,127.308036 202.230868,127.60031 202.35595,128.183608 C202.522726,129.059598 203.106441,129.017487 204.232177,128.851128 C205.774852,128.600547 213.988557,124.890204 214.322109,115.96812 C214.822436,104.50062 203.940319,91.9924406 184.636028,92.1171054 Z M41.542451,140.356986 C35.4134429,147.069709 26.7827988,149.613039 23.1137327,147.444954 C19.1528091,145.151788 20.6950677,135.270326 28.2420865,128.140663 C32.8284191,123.804494 38.7906515,119.801877 42.7098811,117.341935 C43.5854537,116.799914 44.9196596,116.008146 46.504029,115.048768 C46.7541926,114.88241 46.9209684,114.798605 46.9209684,114.798605 C47.2128259,114.631829 47.5463773,114.423359 47.8799288,114.21489 C50.6734223,124.388209 48.0050106,133.310711 41.542451,140.356986 Z M86.3634288,109.878721 C84.2370382,115.090462 79.7340935,128.474215 77.0239878,127.723724 C74.6887107,127.098315 73.2715339,116.966689 76.5649376,106.960146 C78.232695,101.914763 81.7766792,95.9112533 83.8613759,93.5759761 C87.2390014,89.8235222 90.9076505,88.5727042 91.825334,90.1153797 C92.9093762,92.1171054 87.6976346,106.626594 86.3634288,109.878721 Z M123.345947,127.556948 C122.428681,128.015999 121.594802,128.349133 121.219557,128.099386 C120.927699,127.932611 121.594385,127.307202 121.594385,127.307202 C121.594385,127.307202 126.222412,122.345624 128.056945,120.052457 C129.099293,118.718668 130.350111,117.175993 131.684317,115.424431 L131.684317,115.924758 C131.684734,121.928267 125.930971,125.930885 123.345947,127.556948 Z M151.86418,121.052695 C151.197077,120.552368 151.280882,119.009692 153.531938,114.173196 C154.407927,112.255275 156.408819,109.044842 159.869415,106.001185 C160.286355,107.252003 160.536935,108.46071 160.494824,109.586863 C160.453547,117.091771 155.116724,119.885265 151.86418,121.052695 Z" id="Shape"></path>
        </g>
    </g>
</svg>