<?xml version="1.0" encoding="UTF-8"?>
<svg width="110px" height="73px" viewBox="0 0 110 73" version="1.1" xmlns="http://www.w3.org/2000/svg" xmlns:xlink="http://www.w3.org/1999/xlink">
    <!-- Generator: Sketch 50 (54983) - http://www.bohemiancoding.com/sketch -->
    <title>Shape</title>
    <desc>Created with Sketch.</desc>
    <defs></defs>
    <g id="Page-1" stroke="none" stroke-width="1" fill="none" fill-rule="evenodd">
        <g id="google-white" fill="#57648C" fill-rule="nonzero">
            <path d="M11.385288,11.218288 C4.689994,17.913582 0.928735,26.994425 0.929,36.463 C0.928735,45.931575 4.689994,55.012418 11.385288,61.707712 C18.080582,68.403006 27.161425,72.164265 36.63,72.164 C56.345785,72.162343 72.327552,56.178785 72.327,36.463 C72.311867,34.947537 72.200248,33.434576 71.99282,31.9333 L35.63482,31.9333 L35.63482,45.4403 L54.65882,45.4403 C51.255656,52.285541 44.274343,56.617834 36.62982,56.6283 C25.492998,56.6283 16.46482,47.600122 16.46482,36.4633 C16.46482,25.326478 25.492998,16.2983 36.62982,16.2983 C41.048834,16.307169 45.342587,17.767382 48.85082,20.4544 L61.00782,10.4184 C54.400884,4.223838 45.686535,0.771915 36.62982,0.7618 C27.161425,0.761735 18.080582,4.522994 11.385288,11.218288 Z M89.035,21.652 L89.035,30.877 L79.8104,30.877 L79.8104,42.527 L89.035,42.527 L89.035,51.7517 L100.685,51.7517 L100.685,42.527 L109.9059,42.527 L109.9059,30.877 L100.685,30.877 L100.685,21.652 L89.035,21.652 Z" id="Shape"></path>
        </g>
    </g>
</svg>