<?xml version="1.0" encoding="UTF-8"?>
<svg width="74px" height="74px" viewBox="0 0 74 74" version="1.1" xmlns="http://www.w3.org/2000/svg" xmlns:xlink="http://www.w3.org/1999/xlink">
    <!-- Generator: Sketch 50.2 (55047) - http://www.bohemiancoding.com/sketch -->
    <title>instagram</title>
    <desc>Created with Sketch.</desc>
    <defs></defs>
    <g id="Page-1" stroke="none" stroke-width="1" fill="none" fill-rule="evenodd">
        <g id="instagram" fill="#5F2E1B" fill-rule="nonzero">
            <path d="M22.95,0.92 C10.755,0.92 0.937,10.7382 0.937,22.933 L0.937,51.866 C0.937,64.061 10.7552,73.877 22.95,73.877 L51.88,73.877 C64.076,73.877 73.893,64.0614 73.893,51.866 L73.893,22.933 C73.893,10.738 64.0753,0.92 51.88,0.92 L22.95,0.92 Z M25.4033,7.1092 L49.4263,7.1092 C59.5523,7.1092 67.7033,15.2604 67.7033,25.3872 L67.7033,49.4102 C67.7033,59.5362 59.5522,67.6902 49.4263,67.6902 L25.4033,67.6902 C15.2773,67.6902 7.1263,59.5364 7.1263,49.4102 L7.1263,25.3872 C7.1263,15.2612 15.2774,7.1092 25.4033,7.1092 Z M56.6303,13.6231 C53.933089,13.6238176 51.746762,15.8101891 51.7461,18.5074 C51.745755,19.8031152 52.260145,21.0458982 53.176111,21.962351 C54.092076,22.8788038 55.334585,23.3938553 56.6303,23.3942 C57.926535,23.3946511 59.169815,22.8799509 60.086429,21.9634119 C61.003043,21.0468728 61.517845,19.803635 61.5175,18.5074 C61.517182,17.2115982 61.002087,15.9690027 60.085545,15.0530044 C59.169003,14.1370061 57.926102,13.6226491 56.6303,13.6231 Z M37.7403,17.8575 C32.643553,17.8572348 27.75548,19.881792 24.151536,23.4857361 C20.547592,27.0896802 18.523035,31.9777534 18.5233,37.0745 C18.523565,42.1709001 20.548357,47.0584595 24.152243,50.661971 C27.75613,54.2654825 32.6439,56.2897652 37.7403,56.2895 C42.8367,56.2897652 47.72447,54.2654825 51.328357,50.661971 C54.932243,47.0584595 56.957035,42.1709001 56.9573,37.0745 C56.957565,31.9777534 54.933008,27.0896802 51.329064,23.4857361 C47.72512,19.881792 42.837047,17.8572348 37.7403,17.8575 Z M37.7403,25.9988 C40.677481,25.9990652 43.494242,27.1661785 45.570861,29.2433601 C47.64748,31.3205418 48.81383,34.1376193 48.8133,37.0748 C48.812748,43.1900203 43.85552,48.1472478 37.7403,48.1478 C31.62508,48.1472478 26.667852,43.1900203 26.6673,37.0748 C26.66677,34.1376193 27.83312,31.3205418 29.909739,29.2433601 C31.986358,27.1661785 34.803119,25.9990652 37.7403,25.9988 Z" id="Shape"></path>
        </g>
    </g>
</svg>