<?xml version="1.0" encoding="UTF-8"?>
<svg width="565px" height="160px" viewBox="0 0 565 160" version="1.1" xmlns="http://www.w3.org/2000/svg" xmlns:xlink="http://www.w3.org/1999/xlink">
    <!-- Generator: Sketch 50.2 (55047) - http://www.bohemiancoding.com/sketch -->
    <title>nodejs</title>
    <desc>Created with Sketch.</desc>
    <defs></defs>
    <g id="Page-1" stroke="none" stroke-width="1" fill="none" fill-rule="evenodd">
        <g id="nodejs" fill-rule="nonzero">
            <g id="Group" transform="translate(474.482759, 56.275862)" fill="#D9D9D9">
                <path d="M45.2965517,0.674206897 C43.9238621,0.674206897 42.5886897,0.957793103 41.4068966,1.62648276 L4.01324138,23.2209655 C1.59337931,24.6157241 0.122482759,27.2485517 0.122482759,30.0502069 L0.122482759,73.1608276 C0.122482759,75.9602759 1.59337931,78.5897931 4.01324138,79.9878621 L13.7787586,85.6253793 C18.5235862,87.9635862 20.2725517,87.9271724 22.432,87.9271724 C29.4565517,87.9271724 33.4675862,83.6645517 33.4675862,76.2571034 L33.4675862,33.7015172 C33.4675862,33.1001379 32.9467586,32.6697931 32.3564138,32.6697931 L27.6722759,32.6697931 C27.072,32.6697931 26.5611034,33.1001379 26.5611034,33.7015172 L26.5611034,76.2571034 C26.5611034,79.5398621 23.1404138,82.8424828 17.590069,80.0673103 L7.42731034,74.1131034 C7.06758621,73.9177931 6.79172414,73.5724138 6.79172414,73.1608276 L6.79172414,30.0491034 C6.79172414,29.6408276 7.06427586,29.2248276 7.42731034,29.0173793 L44.7415172,7.50344828 C45.0847572,7.30288494 45.5094497,7.30288494 45.8526897,7.50344828 L83.168,29.0184828 C83.5233103,29.2325517 83.8035862,29.6286897 83.8035862,30.0513103 L83.8035862,73.161931 C83.8035862,73.5735172 83.5961379,73.9950345 83.2474483,74.1936552 L45.8526897,95.7086897 C45.5326897,95.8995862 45.0913103,95.8995862 44.7415172,95.7086897 L35.1348966,89.9928276 C34.8379096,89.8317357 34.4796076,89.8317357 34.1826207,89.9928276 C31.5310345,91.4957241 31.0322759,91.670069 28.5451034,92.5329655 C27.9326897,92.7470345 27.0024828,93.0791724 28.8628966,94.121931 L41.4068966,101.504 C42.5896299,102.186362 43.9322101,102.542758 45.2976552,102.536828 C46.6629372,102.545341 48.0057329,102.189167 49.1873103,101.505103 L86.582069,79.9889655 C89.001931,78.582069 90.4717241,75.9613793 90.4717241,73.161931 L90.4717241,30.0502069 C90.4717241,27.2496552 89.001931,24.6212414 86.582069,23.2231724 L49.1873103,1.62868966 C48.0154483,0.958896552 46.6714483,0.675310345 45.2976552,0.675310345 L45.2965517,0.674206897 Z" id="Shape"></path>
                <path d="M55.3004138,31.4791724 C44.6521379,31.4791724 38.3106207,36.0110345 38.3106207,43.5475862 C38.3106207,51.721931 44.6046897,53.9685517 54.8248276,54.9793103 C67.0510345,56.1765517 68.0033103,57.9718621 68.0033103,60.3784828 C68.0033103,64.5528276 64.6753103,66.3326897 56.809931,66.3326897 C46.9263448,66.3326897 44.7547586,63.8653793 44.0275862,58.9495172 C43.9415172,58.422069 43.5343448,57.9961379 42.9947586,57.9961379 L38.1517241,57.9961379 C37.5558621,57.9961379 37.0405517,58.5103448 37.0405517,59.1084138 C37.0405517,65.4013793 40.4634483,72.8430345 56.809931,72.8430345 C68.6422069,72.8430345 75.4670345,68.1986207 75.4670345,60.0606897 C75.4670345,51.9944828 69.9542069,49.8284138 58.4761379,48.3111724 C46.8788966,46.7762759 45.7732414,46.0248276 45.7732414,43.3092414 C45.7732414,41.0670345 46.7111724,38.0678621 55.3004138,38.0678621 C62.9737931,38.0678621 65.8096552,39.7230345 66.9715862,44.8971034 C67.0731034,45.3826207 67.5012414,45.769931 68.0033103,45.769931 L72.8474483,45.769931 C73.1453793,45.769931 73.4344828,45.5867586 73.6408276,45.3726897 C73.8438621,45.1442759 73.9873103,44.8871724 73.9586207,44.5793103 C73.2082759,35.670069 67.2673103,31.4791724 55.3004138,31.4791724 Z" id="Shape"></path>
            </g>
            <path d="M299.940414,0.42262069 C299.522411,0.422897946 299.111687,0.532043854 298.74869,0.739310345 C298.01484,1.16871525 297.562186,1.95362279 297.558069,2.80386207 L297.558069,63.5398621 C297.558069,64.1357241 297.281103,64.6697931 296.76469,64.9688276 C296.249439,65.2689589 295.61263,65.2689589 295.097379,64.9688276 L285.172966,59.2529655 C283.699535,58.4004363 281.88281,58.4004363 280.409379,59.2529655 L240.792276,82.1175172 C239.311448,82.9726897 238.411034,84.6157241 238.411034,86.326069 L238.411034,132.056276 C238.411034,133.764414 239.312552,135.329103 240.792276,136.184276 L280.409379,159.049931 C281.882194,159.904752 283.700151,159.904752 285.172966,159.049931 L324.790069,136.184276 C326.266454,135.334523 327.175291,133.759739 327.172414,132.056276 L327.172414,18.048 C327.170222,16.3043018 326.230211,14.696587 324.711724,13.8394483 L301.131034,0.659862069 C300.761379,0.453517241 300.350897,0.417103448 299.940414,0.42262069 Z M45.088,57.5062069 C44.3332414,57.536 43.6226207,57.6684138 42.9451034,58.0612414 L3.32689655,80.9268966 C1.84959228,81.7755853 0.940713158,83.3511724 0.945655172,85.0548966 L1.02510345,146.427586 C1.02510345,147.280552 1.46537931,148.073931 2.21572414,148.491034 C2.94876719,148.93148 3.86502592,148.93148 4.59806897,148.491034 L28.0982069,134.994759 C29.5867586,134.109793 30.5588966,132.571586 30.5588966,130.865655 L30.5588966,102.20469 C30.5588966,100.494345 31.4582069,98.9252414 32.9412414,98.0755862 L42.944,92.2802759 C43.667228,91.8597591 44.4897601,91.6403156 45.3263448,91.6446897 C46.1428966,91.6446897 46.9815172,91.8488276 47.7075862,92.2802759 L57.7114483,98.0755862 C59.1901953,98.9235124 60.0998283,100.500097 60.0937931,102.20469 L60.0937931,130.864552 C60.0937931,132.570483 61.0758621,134.119724 62.5544828,134.993655 L86.0546207,148.491034 C86.7876637,148.93148 87.7039225,148.93148 88.4369655,148.491034 C89.1738731,148.064532 89.6279329,147.277915 89.6286897,146.426483 L89.705931,85.0548966 C89.715507,83.3499422 88.8053788,81.7721898 87.3246897,80.9268966 L47.7075862,58.0612414 C47.0377931,57.6684138 46.3249655,57.5371034 45.5646897,57.5062069 L45.088,57.5062069 Z M401.086897,58.0612414 C400.25931,58.0612414 399.448276,58.2708966 398.705655,58.6968276 L359.088552,81.5624828 C357.611831,82.4118999 356.702871,83.9868977 356.706207,85.6904828 L356.706207,131.42069 C356.706207,133.140966 357.675034,134.699034 359.166897,135.549793 L398.46731,157.938759 C399.918345,158.766345 401.690483,158.829241 403.151448,158.016 L426.969379,144.758069 C427.725241,144.338759 428.236138,143.55531 428.239448,142.694621 C428.24773,141.841078 427.791746,141.050396 427.048828,140.630069 L387.193379,117.764414 C386.447448,117.338483 385.92331,116.47669 385.92331,115.620414 L385.92331,101.330759 C385.92331,100.475586 386.452966,99.6921379 387.193379,99.2662069 L399.578483,92.1202759 C400.315338,91.6937984 401.223972,91.6937984 401.960828,92.1202759 L414.344828,99.2662069 C415.083397,99.6905084 415.538138,100.477884 415.536552,101.329655 L415.536552,112.603586 C415.534279,113.455251 415.988692,114.242788 416.727172,114.667034 C417.469793,115.096276 418.368,115.097379 419.108414,114.667034 L442.848,100.855172 C444.321889,100.002385 445.22974,98.4288888 445.230345,96.726069 L445.230345,85.6915862 C445.230345,83.9867586 444.325517,82.4187586 442.848,81.5624828 L403.469241,58.6968276 C402.745329,58.2780855 401.923188,58.059127 401.086897,58.0623448 L401.086897,58.0612414 Z M282.631724,92.2008276 C282.839172,92.2008276 283.081931,92.2515862 283.26731,92.3586207 L296.844138,100.218483 C297.21269,100.431448 297.479724,100.825379 297.479724,101.250207 L297.479724,116.969931 C297.479724,117.396966 297.214897,117.789793 296.844138,118.002759 L283.26731,125.862621 C282.89839,126.073277 282.44561,126.073277 282.07669,125.862621 L268.500966,118.002759 C268.13131,117.78869 267.865379,117.396966 267.865379,116.969931 L267.865379,101.250207 C267.865379,100.824276 268.132414,100.433655 268.500966,100.218483 L282.07669,92.3597241 C282.243567,92.2559306 282.436307,92.2012444 282.632828,92.201931 L282.632828,92.2008276 L282.631724,92.2008276 Z" id="Shape" fill="#9C9C9C"></path>
            <path d="M164.098207,57.8228966 C163.272828,57.8228966 162.456276,58.0325517 161.716966,58.4584828 L122.099862,81.2446897 C120.617931,82.0976552 119.717517,83.744 119.717517,85.4521379 L119.717517,131.182345 C119.717517,132.89269 120.619034,134.455172 122.099862,135.311448 L161.716966,158.176 C163.189594,159.031511 165.007923,159.031511 166.480552,158.176 L206.097655,135.311448 C207.573958,134.461218 208.482397,132.885973 208.478897,131.182345 L208.478897,85.4521379 C208.478897,83.7417931 207.578483,82.0976552 206.097655,81.2446897 L166.480552,58.4584828 C165.756382,58.0402381 164.934476,57.8209618 164.098207,57.8228966 Z M401.007448,98.6317241 C400.849655,98.6317241 400.674207,98.6317241 400.531862,98.7111724 L392.910345,103.156966 C392.620992,103.317685 392.4393,103.620504 392.433655,103.951448 L392.433655,112.684138 C392.433655,113.012966 392.623448,113.314207 392.910345,113.478621 L400.531862,117.844966 C400.817655,118.010483 401.122207,118.010483 401.40469,117.844966 L409.026207,113.477517 C409.314251,113.315992 409.495519,113.014298 409.502897,112.684138 L409.502897,103.950345 C409.495519,103.620185 409.314251,103.318491 409.026207,103.156966 L401.40469,98.710069 C401.263448,98.6273103 401.166345,98.6328276 401.007448,98.6328276 L401.007448,98.6317241 Z" id="Shape" fill="#D9D9D9"></path>
        </g>
    </g>
</svg>