<?xml version="1.0" encoding="UTF-8"?>
<svg width="169px" height="160px" viewBox="0 0 169 160" version="1.1" xmlns="http://www.w3.org/2000/svg" xmlns:xlink="http://www.w3.org/1999/xlink">
    <!-- Generator: Sketch 50.2 (55047) - http://www.bohemiancoding.com/sketch -->
    <title>Shape</title>
    <desc>Created with Sketch.</desc>
    <defs></defs>
    <g id="Page-1" stroke="none" stroke-width="1" fill="none" fill-rule="evenodd">
        <g id="redux" fill="#9C9C9C" fill-rule="nonzero">
            <path d="M116.777739,111.742719 C122.997116,111.098859 127.715468,105.737304 127.500848,99.302649 C127.286886,92.8686521 121.924673,87.7210596 115.490676,87.7210596 L115.062094,87.7210596 C108.412819,87.9356798 103.265884,93.5118543 103.480505,100.160471 C103.695125,103.377799 104.981529,106.165886 106.911794,108.096151 C99.6199749,122.466486 88.4676258,132.975633 71.7391022,141.769135 C60.372133,147.77455 48.5765818,149.919435 36.7810305,148.418411 C27.129706,147.131348 19.6232666,142.842236 14.9042561,135.76372 C8.04167719,125.254573 7.398475,113.886946 13.1892697,102.519977 C17.2644197,94.3696767 23.6977582,88.3642618 27.7729082,85.3615544 C26.9150858,82.5734671 25.6280231,77.8551149 24.9848209,74.4238255 C-6.11337931,96.9438021 -2.89605169,127.399459 6.54065264,141.769135 C13.6178517,152.493561 27.9875284,159.142178 43.8582296,159.142178 C48.1473414,159.142178 52.4364532,158.712937 56.7262234,157.641153 C84.178514,152.27894 104.982188,135.97834 116.777739,111.742719 Z M154.524556,85.1475925 C138.224615,66.0589053 114.204272,55.5497585 86.7519811,55.5497585 L83.3206916,55.5497585 C81.3904267,51.6892287 77.3152768,49.1151032 72.8115448,49.1151032 L72.3823044,49.1151032 C65.7343457,49.3297234 60.5874115,54.9058979 60.8013734,61.5551734 C61.0159935,67.9891702 66.3775479,73.1367628 72.8115448,73.1367628 L73.2401268,73.1367628 C77.9584789,72.9221426 82.0336289,69.9194351 83.7492737,65.8442852 L87.6098035,65.8442852 C103.909745,65.8442852 119.351206,70.5626373 133.292301,79.7853798 C144.015409,86.8632372 151.736469,96.0859797 156.025581,107.238329 C159.67149,116.246451 159.45687,125.039953 155.59634,132.547051 C149.591584,143.91402 139.511677,150.134055 126.214443,150.134055 C117.635561,150.134055 109.48592,147.55993 105.196149,145.629665 C102.837302,147.77455 98.5475323,151.20584 95.5448249,153.351383 C104.767567,157.640495 114.204272,160 123.211736,160 C143.800789,160 159.028288,148.632372 164.819083,137.265403 C171.03846,124.825333 170.609219,103.377799 154.524556,85.1475925 Z M45.5738743,115.38797 C45.7884945,121.822626 51.1500489,126.96956 57.5840457,126.96956 L58.0132861,126.96956 C64.6619032,126.755598 69.8088373,121.178765 69.5942172,114.530148 C69.3802553,108.095493 64.0180426,102.948559 57.5840457,102.948559 L57.1554637,102.948559 C56.7262234,102.948559 56.0823629,102.948559 55.6544392,103.16252 C46.860937,88.5782236 43.2150274,72.7075224 44.5020901,55.5491001 C45.3592541,42.680448 49.6490243,31.5274406 57.1554637,22.3046981 C63.3748404,14.3690183 75.3850119,10.5084885 83.5353118,10.2945267 C106.268592,9.86528634 115.919258,38.1760577 116.563119,49.5436852 C119.351206,50.1868874 124.069558,51.6885703 127.286886,52.7610129 C124.71276,18.0162446 103.265884,0 82.6774895,0 C63.3748404,0 45.5738743,13.9410947 38.4960169,34.5308064 C28.6307306,61.9837554 35.0647275,88.3642618 47.0748989,109.168594 C46.0031147,110.669618 45.3592541,113.029123 45.5738743,115.388629 L45.5738743,115.38797 Z" id="Shape"></path>
        </g>
    </g>
</svg>