<?xml version="1.0" encoding="UTF-8"?>
<svg width="66px" height="51px" viewBox="0 0 66 51" version="1.1" xmlns="http://www.w3.org/2000/svg" xmlns:xlink="http://www.w3.org/1999/xlink">
    <!-- Generator: Sketch 50 (54983) - http://www.bohemiancoding.com/sketch -->
    <title>Shape</title>
    <desc>Created with Sketch.</desc>
    <defs></defs>
    <g id="Page-1" stroke="none" stroke-width="1" fill="none" fill-rule="evenodd">
        <g id="twitter-white" fill="#57648C" fill-rule="nonzero">
            <path d="M44.1647,0.1782 C42.0069,0.41259 39.9147,1.2212 38.157,2.4946 C36.3993,3.768 34.9798,5.5033 34.0748,7.4761 C32.956,9.9149 32.6357,12.6416 32.5364,15.3229 C32.5304,15.49162 32.5304,15.66071 32.5245,15.82951 C22.4635,14.91298 13.8415,9.10101 5.8095,1.28651 C4.83709,7.39921 2.2503,13.42251 10.7611,20.06151 C8.4916,19.32255 6.2218,18.99631 3.9523,16.96651 C3.46028,26.91431 10.126,28.58451 15.7123,31.92551 C13.1746,31.89141 10.6743,32.04315 7.8722,30.68721 C8.0079,34.23281 13.6145,38.21871 19.6682,42.05321 C13.8843,45.26571 6.7942,46.08381 0.4442,44.20151 C8.3106,48.81931 17.5362,51.08891 26.6472,50.64871 C30.7886,50.44856 34.9243,49.6943 38.7762,48.15971 C42.6279,46.62501 46.1919,44.29221 48.9432,41.19011 C53.1233,36.47631 55.2139,30.29311 56.7703,24.18811 C57.58027,21.01101 58.2774,17.77231 58.258,14.49361 C58.254,14.14084 58.2427,13.78709 58.2224,13.43361 L65.126,7.27021 L57.3892,7.88909 L61.7219,2.83429 L55.4502,5.10109 C54.1852,3.39299 52.4715,2.02039 50.5268,1.16209 C49.0376,0.50482 47.4175,0.14859 45.7901,0.11049 C45.24758,0.0973 44.7042,0.12 44.1647,0.1782 Z" id="Shape"></path>
        </g>
    </g>
</svg>